<svg width="79" height="13" viewBox="0 0 79 13" fill="none" xmlns="http://www.w3.org/2000/svg">
<path d="M6.01227 0.677771C6.31987 -0.225929 7.59801 -0.225919 7.90561 0.677771L8.88911 3.56723C9.02711 3.9725 9.40771 4.24501 9.83581 4.24501H12.916C13.8959 4.24501 14.2911 5.50826 13.4859 6.06673L11.0751 7.7387C10.7083 7.9931 10.5545 8.4599 10.6984 8.8826L11.6378 11.6427C11.9487 12.5559 10.914 13.3364 10.1213 12.7866L7.52881 10.9887C7.18608 10.7509 6.73179 10.7509 6.38904 10.9887L3.79656 12.7866C3.0039 13.3364 1.96917 12.5559 2.28001 11.6427L3.21949 8.8826C3.36336 8.4599 3.2096 7.9931 2.84272 7.7387L0.431982 6.06673C-0.373248 5.50826 0.0219321 4.24501 1.00188 4.24501H4.08209C4.51019 4.24501 4.8908 3.9725 5.02875 3.56723L6.01227 0.677771Z" fill="#FFA858"/>
<path d="M22.1949 0.823741C22.4942 -0.0975785 23.7977 -0.0975785 24.097 0.823741L24.9841 3.55402C25.118 3.96604 25.5019 4.24501 25.9352 4.24501H28.8059C29.7746 4.24501 30.1774 5.48461 29.3937 6.05402L27.0712 7.7415C26.7207 7.9961 26.574 8.4475 26.7079 8.8595L27.595 11.5899C27.8944 12.5112 26.8399 13.2773 26.0562 12.7079L23.7337 11.0205C23.3832 10.7658 22.9086 10.7658 22.5581 11.0205L20.2357 12.7079C19.452 13.2773 18.3975 12.5112 18.6969 11.5899L19.584 8.8595C19.7179 8.4475 19.5712 7.9961 19.2207 7.7415L16.8982 6.05401C16.1145 5.48461 16.5173 4.24501 17.486 4.24501H20.3567C20.79 4.24501 21.1739 3.96604 21.3078 3.55402L22.1949 0.823741Z" fill="#FFA858"/>
<path d="M38.3863 0.677771C38.6939 -0.225929 39.972 -0.225919 40.2796 0.677771L41.2631 3.56723C41.4011 3.9725 41.7817 4.24501 42.2098 4.24501H45.29C46.2699 4.24501 46.6651 5.50826 45.8599 6.06673L43.4492 7.7387C43.0823 7.9931 42.9285 8.4599 43.0724 8.8826L44.0119 11.6427C44.3227 12.5559 43.288 13.3364 42.4953 12.7866L39.9028 10.9887C39.5601 10.7509 39.1058 10.7509 38.7631 10.9887L36.1706 12.7866C35.3779 13.3364 34.3432 12.5559 34.654 11.6427L35.5935 8.8826C35.7374 8.4599 35.5836 7.9931 35.2167 7.7387L32.806 6.06673C32.0008 5.50826 32.3959 4.24501 33.3759 4.24501H36.4561C36.8842 4.24501 37.2648 3.9725 37.4028 3.56723L38.3863 0.677771Z" fill="#FFA858" fill-opacity="0.4"/>
<path d="M54.5689 0.823741C54.8683 -0.0975785 56.1717 -0.0975785 56.471 0.823741L57.3581 3.55402C57.492 3.96604 57.876 4.24501 58.3092 4.24501H61.1799C62.1487 4.24501 62.5514 5.48461 61.7677 6.05402L59.4452 7.7415C59.0947 7.9961 58.9481 8.4475 59.0819 8.8595L59.9691 11.5899C60.2684 12.5112 59.2139 13.2773 58.4302 12.7079L56.1078 11.0205C55.7573 10.7658 55.2827 10.7658 54.9322 11.0205L52.6097 12.7079C51.826 13.2773 50.7715 12.5112 51.0709 11.5899L51.958 8.8595C52.0919 8.4475 51.9452 7.9961 51.5947 7.7415L49.2722 6.05401C48.4885 5.48461 48.8913 4.24501 49.86 4.24501H52.7308C53.164 4.24501 53.5479 3.96604 53.6818 3.55402L54.5689 0.823741Z" fill="#FFA858" fill-opacity="0.4"/>
<path d="M70.7603 0.677771C71.0679 -0.225929 72.346 -0.225919 72.6536 0.677771L73.6372 3.56723C73.7751 3.9725 74.1557 4.24501 74.5838 4.24501H77.664C78.644 4.24501 79.0392 5.50826 78.2339 6.06673L75.8232 7.7387C75.4563 7.9931 75.3025 8.4599 75.4464 8.8826L76.3859 11.6427C76.6967 12.5559 75.662 13.3364 74.8693 12.7866L72.2769 10.9887C71.9341 10.7509 71.4798 10.7509 71.1371 10.9887L68.5446 12.7866C67.7519 13.3364 66.7172 12.5559 67.028 11.6427L67.9675 8.8826C68.1114 8.4599 67.9576 7.9931 67.5908 7.7387L65.18 6.06673C64.3748 5.50826 64.77 4.24501 65.7499 4.24501H68.8301C69.2582 4.24501 69.6388 3.9725 69.7768 3.56723L70.7603 0.677771Z" fill="#FFA858" fill-opacity="0.4"/>
</svg>
