<svg width="47" height="53" viewBox="0 0 47 53" fill="none" xmlns="http://www.w3.org/2000/svg">
<path fill-rule="evenodd" clip-rule="evenodd" d="M11.4078 49.1657C15.1017 51.3386 19.5127 52.425 24.6408 52.425C29.0953 52.425 32.9522 51.6102 36.2115 49.9805C39.4709 48.3508 42.0241 46.091 43.871 43.2011C45.7397 40.2894 46.7827 36.9214 47 33.097H33.8974C33.6366 34.8571 33.0826 36.3673 32.2351 37.6276C31.4094 38.8661 30.3556 39.8113 29.0735 40.4632C27.8133 41.1151 26.39 41.441 24.8038 41.441C22.6526 41.441 20.773 40.8543 19.1651 39.681C17.5571 38.5076 16.3077 36.8018 15.4168 34.5638C14.5477 32.3257 14.1131 29.6095 14.1131 26.4154C14.1131 23.2646 14.5585 20.5811 15.4494 18.3647C16.3403 16.1484 17.5789 14.4644 19.1651 13.3127C20.773 12.1394 22.6526 11.5527 24.8038 11.5527C27.3461 11.5527 29.3995 12.3241 30.964 13.8668C32.5502 15.3879 33.528 17.3978 33.8974 19.8966H47C46.8045 16.0289 45.7506 12.6609 43.8384 9.79262C41.9263 6.92438 39.3297 4.69715 36.0486 3.11093C32.7675 1.52471 28.9432 0.731598 24.5756 0.731598C19.5127 0.731598 15.1452 1.82891 11.473 4.02355C7.80078 6.19646 4.96514 9.22766 2.96606 13.1172C0.988718 16.9849 4.57764e-05 21.4829 4.57764e-05 26.6109C4.57764e-05 31.6738 0.977854 36.15 2.93347 40.0395C4.91081 43.929 7.73559 46.9711 11.4078 49.1657ZM28.462 33.7856L26.4142 26.0111C26.2679 25.4317 26.2459 24.91 26.3484 24.4461C26.4552 23.9748 26.6699 23.5812 26.9924 23.2653C27.3207 22.9479 27.7359 22.7231 28.2379 22.5909C28.985 22.3941 29.6331 22.473 30.1821 22.8278C30.7297 23.1766 31.1089 23.7633 31.3198 24.5878L33.3999 32.485L37.1296 31.5026L34.8743 22.9401C34.5991 21.8953 34.1697 21.0472 33.5862 20.3957C33.0011 19.7384 32.3074 19.2969 31.5053 19.0713C30.7031 18.8456 29.835 18.8558 28.9011 19.1018C27.903 19.3647 27.1145 19.8189 26.5356 20.4645C25.9551 21.1043 25.619 21.8544 25.5273 22.715L25.3697 22.7565L24.7448 20.3838L21.1902 21.3201L24.7323 34.768L28.462 33.7856Z" fill="#B8E135"/>
</svg>
