<svg width="47" height="52" viewBox="0 0 47 52" fill="none" xmlns="http://www.w3.org/2000/svg">
<path fill-rule="evenodd" clip-rule="evenodd" d="M11.4078 48.4341C15.1017 50.607 19.5127 51.6935 24.6408 51.6935C29.0952 51.6935 32.9521 50.8786 36.2115 49.2489C39.4709 47.6192 42.024 45.3594 43.871 42.4695C45.7397 39.5578 46.7827 36.1898 47 32.3654H33.8973C33.6366 34.1255 33.0825 35.6357 32.2351 36.896C31.4094 38.1345 30.3555 39.0797 29.0735 39.7316C27.8132 40.3835 26.39 40.7094 24.8037 40.7094C22.6526 40.7094 20.773 40.1227 19.165 38.9494C17.5571 37.776 16.3077 36.0703 15.4168 33.8322C14.5476 31.5941 14.113 28.8779 14.113 25.6838C14.113 22.533 14.5585 19.8495 15.4494 17.6331C16.3403 15.4168 17.5788 13.7328 19.165 12.5811C20.773 11.4078 22.6526 10.8211 24.8037 10.8211C27.346 10.8211 29.3994 11.5925 30.9639 13.1352C32.5501 14.6563 33.528 16.6662 33.8973 19.165H47C46.8044 15.2973 45.7505 11.9293 43.8384 9.06102C41.9262 6.19278 39.3296 3.96555 36.0485 2.37933C32.7674 0.79311 28.9431 0 24.5756 0C19.5127 0 15.1452 1.09732 11.4729 3.29195C7.80073 5.46486 4.96509 8.49606 2.96602 12.3856C0.988672 16.2533 0 20.7513 0 25.8793C0 30.9422 0.977808 35.4184 2.93342 39.3079C4.91077 43.1974 7.73555 46.2395 11.4078 48.4341ZM27.8822 32.9433L25.8621 25.2738C25.7326 24.7586 25.7107 24.2963 25.7963 23.8868C25.8878 23.4757 26.0774 23.1292 26.3652 22.8475C26.6573 22.5583 27.0281 22.3545 27.4775 22.2362C28.1546 22.0578 28.7382 22.1288 29.2282 22.4491C29.7242 22.7679 30.0676 23.3016 30.2585 24.0503L32.2948 31.7811L36.5761 30.6534L34.3184 22.0821C34.0583 21.0708 33.6335 20.2402 33.0442 19.5902C32.4591 18.9329 31.761 18.4864 30.9499 18.2506C30.1431 18.0075 29.2669 18.0105 28.3213 18.2595C27.3291 18.5209 26.5363 18.9825 25.9429 19.6444C25.3479 20.3004 25.01 21.0791 24.9291 21.9805L24.7803 22.0197L24.13 19.5508L20.0588 20.6231L23.6009 34.071L27.8822 32.9433Z" fill="#C6ED4B"/>
</svg>
