<svg width="118" height="70" viewBox="0 0 118 70" fill="none" xmlns="http://www.w3.org/2000/svg">
<path fill-rule="evenodd" clip-rule="evenodd" d="M33.169 69.2329C26.3454 69.2329 20.4758 67.7872 15.5605 64.8958C10.674 61.9755 6.91523 57.9276 4.28407 52.752C1.68182 47.5764 0.380692 41.6202 0.380692 34.8832C0.380692 28.0595 1.69627 22.0744 4.32744 16.9277C6.98752 11.7521 10.7608 7.71862 15.6472 4.82723C20.5337 1.90693 26.3454 0.446777 33.0823 0.446777C38.894 0.446777 43.9828 1.50213 48.3488 3.61284C52.7148 5.72356 56.17 8.68723 58.7145 12.5039C61.2589 16.3205 62.6612 20.8022 62.9214 25.9488H45.4864C44.9948 22.6237 43.6937 19.9492 41.583 17.9252C39.5012 15.8723 36.7688 14.8459 33.3859 14.8459C30.5234 14.8459 28.0224 15.6266 25.8827 17.1879C23.772 18.7204 22.1239 20.9612 20.9385 23.9104C19.753 26.8596 19.1603 30.4305 19.1603 34.623C19.1603 38.8733 19.7385 42.4876 20.8951 45.4657C22.0806 48.4438 23.7431 50.7136 25.8827 52.2749C28.0224 53.8363 30.5234 54.617 33.3859 54.617C35.4966 54.617 37.3905 54.1832 39.0675 53.3158C40.7734 52.4484 42.1757 51.1907 43.2744 49.5426C44.4021 47.8656 45.1394 45.856 45.4864 43.514H62.9214C62.6323 48.6029 61.2444 53.0845 58.7578 56.959C56.3002 60.8045 52.9028 63.8116 48.5657 65.9801C44.2286 68.1487 39.0964 69.2329 33.169 69.2329ZM35.4611 34.2557L38.186 44.601L33.223 45.9082L28.5097 28.0137L33.2396 26.7678L34.0712 29.925L34.2809 29.8697C34.4029 28.7247 34.8501 27.7265 35.6225 26.8752C36.3929 26.0161 37.4422 25.4117 38.7703 25.0619C40.013 24.7346 41.168 24.721 42.2355 25.0212C43.3029 25.3215 44.2259 25.9089 45.0045 26.7836C45.781 27.6505 46.3523 28.779 46.7185 30.1693L49.7196 41.5631L44.7566 42.8703L41.9888 32.3619C41.7081 31.2648 41.2035 30.4841 40.4749 30.0198C39.7442 29.5478 38.8819 29.4428 37.8877 29.7046C37.2198 29.8805 36.6673 30.1797 36.2304 30.6021C35.8013 31.0224 35.5157 31.5462 35.3735 32.1733C35.2371 32.7906 35.2663 33.4848 35.4611 34.2557ZM62.3166 43.1667C63.682 43.9618 65.3004 44.3594 67.1717 44.3594C69.0431 44.3594 70.6575 43.9618 72.0148 43.1667C73.3802 42.3635 74.4323 41.2471 75.1712 39.8175C75.9102 38.3798 76.2796 36.7132 76.2796 34.8178C76.2796 32.9062 75.9102 31.2357 75.1712 29.806C74.4323 28.3684 73.3802 27.252 72.0148 26.4568C70.6575 25.6537 69.0431 25.2521 67.1717 25.2521C65.3004 25.2521 63.682 25.6537 62.3166 26.4568C60.9593 27.252 59.9111 28.3684 59.1722 29.806C58.4333 31.2357 58.0639 32.9062 58.0639 34.8178C58.0639 36.7132 58.4333 38.3798 59.1722 39.8175C59.9111 41.2471 60.9593 42.3635 62.3166 43.1667ZM69.3282 39.6608C68.758 40.1427 68.0472 40.3837 67.1958 40.3837C66.3364 40.3837 65.6136 40.1427 65.0273 39.6608C64.449 39.1709 64.0113 38.5043 63.7141 37.661C63.425 36.8176 63.2804 35.8579 63.2804 34.7816C63.2804 33.7054 63.425 32.7456 63.7141 31.9023C64.0113 31.059 64.449 30.3923 65.0273 29.9024C65.6136 29.4125 66.3364 29.1675 67.1958 29.1675C68.0472 29.1675 68.758 29.4125 69.3282 29.9024C69.8985 30.3923 70.3282 31.059 70.6173 31.9023C70.9145 32.7456 71.0631 33.7054 71.0631 34.7816C71.0631 35.8579 70.9145 36.8176 70.6173 37.661C70.3282 38.5043 69.8985 39.1709 69.3282 39.6608ZM83.1226 43.1667C84.4879 43.9618 86.1063 44.3594 87.9777 44.3594C89.8491 44.3594 91.4634 43.9618 92.8208 43.1667C94.1861 42.3635 95.2383 41.2471 95.9772 39.8175C96.7161 38.3798 97.0856 36.7132 97.0856 34.8178C97.0856 32.9062 96.7161 31.2357 95.9772 29.806C95.2383 28.3684 94.1861 27.252 92.8208 26.4568C91.4634 25.6537 89.8491 25.2521 87.9777 25.2521C86.1063 25.2521 84.4879 25.6537 83.1226 26.4568C81.7652 27.252 80.7171 28.3684 79.9782 29.806C79.2393 31.2357 78.8698 32.9062 78.8698 34.8178C78.8698 36.7132 79.2393 38.3798 79.9782 39.8175C80.7171 41.2471 81.7652 42.3635 83.1226 43.1667ZM90.1342 39.6608C89.5639 40.1427 88.8531 40.3837 88.0018 40.3837C87.1424 40.3837 86.4196 40.1427 85.8332 39.6608C85.255 39.1709 84.8172 38.5043 84.5201 37.661C84.2309 36.8176 84.0864 35.8579 84.0864 34.7816C84.0864 33.7054 84.2309 32.7456 84.5201 31.9023C84.8172 31.059 85.255 30.3923 85.8332 29.9024C86.4196 29.4125 87.1424 29.1675 88.0018 29.1675C88.8531 29.1675 89.5639 29.4125 90.1342 29.9024C90.7044 30.3923 91.1341 31.059 91.4233 31.9023C91.7204 32.7456 91.869 33.7054 91.869 34.7816C91.869 35.8579 91.7204 36.8176 91.4233 37.661C91.1341 38.5043 90.7044 39.1709 90.1342 39.6608ZM105.555 38.1227V43.9979H100.423V19.3247H105.555V32.5167H105.832L111.759 25.493H117.651L110.787 33.5088L118 43.9979H111.988L106.946 36.5346L105.555 38.1227Z" fill="#C6ED4B"/>
</svg>
